<?xml version="1.0" encoding="iso-8859-1"?>
<!-- Uploaded to: SVG Repo, www.svgrepo.com, Generator: SVG Repo Mixer Tools -->
<svg version="1.1" id="Layer_1" xmlns="http://www.w3.org/2000/svg" xmlns:xlink="http://www.w3.org/1999/xlink" 
	 viewBox="0 0 512 512" xml:space="preserve">
<g>
	<rect x="99.651" y="125.423" style="fill:#FF5023;" width="41.235" height="89.342"/>
	<rect x="99.651" y="297.235" style="fill:#FF5023;" width="41.235" height="89.342"/>
	<polygon style="fill:#FF5023;" points="415.785,448.43 216.483,448.43 216.483,407.195 374.55,407.195 374.55,297.235 
		415.785,297.235 	"/>
	<polygon style="fill:#FF5023;" points="415.785,214.765 374.55,214.765 374.55,104.805 216.483,104.805 216.483,63.57 
		415.785,63.57 	"/>
</g>
<g>
	<rect x="3.436" y="372.832" style="fill:#93C7EF;" width="233.664" height="109.96"/>
	<rect x="3.436" y="201.02" style="fill:#93C7EF;" width="233.664" height="109.96"/>
	<rect x="278.336" y="201.02" style="fill:#93C7EF;" width="233.664" height="109.96"/>
	<rect y="29.208" style="fill:#93C7EF;" width="233.664" height="109.96"/>
</g>
<g>
	<rect x="118.468" y="372.832" style="fill:#78B9EB;" width="118.633" height="109.96"/>
	<rect x="118.468" y="201.02" style="fill:#78B9EB;" width="118.633" height="109.96"/>
	<rect x="393.367" y="201.02" style="fill:#78B9EB;" width="118.633" height="109.96"/>
	<rect x="116.832" y="29.208" style="fill:#78B9EB;" width="118.633" height="109.96"/>
</g>
</svg>